<svg viewBox="0 0 14 20" fill="none" xmlns="http://www.w3.org/2000/svg">
<path d="M6.92078 0C5.26378 0 3.92078 1.41368 3.92078 3.15789V9.47368C3.92078 11.2179 5.26378 12.6316 6.92078 12.6316C8.57778 12.6316 9.92078 11.2179 9.92078 9.47368V3.15789C9.92078 1.41368 8.57778 0 6.92078 0ZM1.00867 9.47368C0.402672 9.47368 -0.0854219 10.0397 0.0125781 10.6702C0.502457 13.8278 2.90192 16.3042 5.92078 16.7599V18.9474C5.92078 19.5284 6.36878 20 6.92078 20C7.47278 20 7.92078 19.5284 7.92078 18.9474V16.7599C10.9396 16.3042 13.3391 13.8278 13.829 10.6702C13.927 10.0397 13.4389 9.47368 12.8329 9.47368C12.3389 9.47368 11.9315 9.85638 11.8485 10.3701C11.4435 12.849 9.39178 14.7368 6.92078 14.7368C4.44978 14.7368 2.39805 12.849 1.99305 10.3701C1.91005 9.85638 1.50367 9.47368 1.00867 9.47368Z" fill="white"/>
</svg>
