<?xml version="1.0" encoding="UTF-8" standalone="no"?>
<!DOCTYPE svg PUBLIC "-//W3C//DTD SVG 1.1//EN" "http://www.w3.org/Graphics/SVG/1.1/DTD/svg11.dtd">
<svg version="1.1" xmlns="http://www.w3.org/2000/svg" xmlns:xlink="http://www.w3.org/1999/xlink" preserveAspectRatio="xMidYMid meet" viewBox="0.3702882483370189 0.6267553584626739 43.62971175166297 50.227642276422756" width="37.63" height="44.23"><defs><path d="M31.68 2.63C36.28 2.63 40 6.35 40 10.95C40 18.13 40 31.35 40 38.54C40 43.13 36.28 46.85 31.68 46.85C25.82 46.85 16.55 46.85 10.69 46.85C6.09 46.85 2.37 43.13 2.37 38.54C2.37 31.35 2.37 18.13 2.37 10.95C2.37 6.35 6.09 2.63 10.69 2.63C16.55 2.63 25.82 2.63 31.68 2.63Z" id="b2mLfCxcrh"></path></defs><g><g><g><filter id="shadow2961520" x="-7.63" y="-7.37" width="59.63" height="66.23" filterUnits="userSpaceOnUse" primitiveUnits="userSpaceOnUse"><feFlood></feFlood><feComposite in2="SourceAlpha" operator="in"></feComposite><feGaussianBlur stdDeviation="1"></feGaussianBlur><feOffset dx="2" dy="2" result="afterOffset"></feOffset><feFlood flood-color="#000000" flood-opacity="0.5"></feFlood><feComposite in2="afterOffset" operator="in"></feComposite><feMorphology operator="dilate" radius="1"></feMorphology><feComposite in2="SourceAlpha" operator="out"></feComposite></filter><path d="M31.68 2.63C36.28 2.63 40 6.35 40 10.95C40 18.13 40 31.35 40 38.54C40 43.13 36.28 46.85 31.68 46.85C25.82 46.85 16.55 46.85 10.69 46.85C6.09 46.85 2.37 43.13 2.37 38.54C2.37 31.35 2.37 18.13 2.37 10.95C2.37 6.35 6.09 2.63 10.69 2.63C16.55 2.63 25.82 2.63 31.68 2.63Z" id="deeKN629C" fill="white" fill-opacity="1" filter="url(#shadow2961520)"></path></g><use xlink:href="#b2mLfCxcrh" opacity="1" fill="#ffffff" fill-opacity="1.00"></use><g><use xlink:href="#b2mLfCxcrh" opacity="1" fill-opacity="0" stroke="#000000" stroke-width="4" stroke-opacity="0"></use></g></g></g></svg>