<svg viewBox="0 0 20 18" fill="none" xmlns="http://www.w3.org/2000/svg">
<path d="M0.909091 0C0.407273 0 0 0.407273 0 0.909091V10C0 10.5018 0.407273 10.9091 0.909091 10.9091H2.72727C3.22909 10.9091 3.63636 10.5018 3.63636 10V0.909091C3.63636 0.407273 3.22909 0 2.72727 0H0.909091ZM7.27273 0C6.26818 0 5.45455 0.813636 5.45455 1.81818V10.902C5.45455 11.3838 5.64544 11.8448 5.98544 12.1857L11.0121 17.223C11.5421 17.7539 12.4005 17.7573 12.935 17.2319C13.2687 16.9037 13.4114 16.4259 13.3114 15.9677L12.4077 11.8182H18.1818C19.1864 11.8182 20 11.0045 20 10V8.18359C20 7.93723 19.9499 7.69263 19.8526 7.46626L17.1183 1.10085C16.8319 0.43267 16.1738 0 15.4474 0H7.27273Z" fill="black"/>
</svg>
