<svg viewBox="0 0 21 21" fill="none" xmlns="http://www.w3.org/2000/svg">
<path d="M12.9636 1.17853L1.17851 12.9636C0.528562 13.6136 0.528562 14.6707 1.17851 15.3207L4.89256 19.0347C5.54251 19.6847 6.59963 19.6847 7.24958 19.0347L19.0347 7.2496C19.6846 6.59965 19.6846 5.54252 19.0347 4.89257L15.3206 1.17853C14.6707 0.528578 13.6136 0.528579 12.9636 1.17853ZM4.41942 15.026L3.24091 13.8475C3.07827 13.6849 3.07827 13.4209 3.24091 13.2583L3.83016 12.669C3.9928 12.5064 4.25678 12.5064 4.41942 12.669L5.59793 13.8475C5.76056 14.0102 5.76056 14.2741 5.59793 14.4368L5.00867 15.026C4.84604 15.1887 4.58205 15.1887 4.41942 15.026ZM7.95495 13.8475L5.59793 11.4905C5.43529 11.3279 5.43529 11.0639 5.59793 10.9012L6.18718 10.312C6.34982 10.1494 6.61381 10.1494 6.77644 10.312L9.13346 12.669C9.2961 12.8316 9.2961 13.0956 9.13346 13.2583L8.54421 13.8475C8.38157 14.0102 8.11759 14.0102 7.95495 13.8475ZM9.13346 10.312L7.95495 9.13348C7.79232 8.97084 7.79232 8.70686 7.95495 8.54422L8.54421 7.95497C8.70684 7.79233 8.97083 7.79233 9.13346 7.95497L10.312 9.13348C10.4746 9.29611 10.4746 9.5601 10.312 9.72273L9.72272 10.312C9.56008 10.4746 9.2961 10.4746 9.13346 10.312ZM12.669 9.13348L10.312 6.77646C10.1493 6.61382 10.1493 6.34983 10.312 6.1872L10.9012 5.59794C11.0639 5.43531 11.3278 5.43531 11.4905 5.59794L13.8475 7.95497C14.0101 8.1176 14.0101 8.38159 13.8475 8.54422L13.2583 9.13348C13.0956 9.29611 12.8316 9.29611 12.669 9.13348ZM13.8475 5.59794L12.669 4.41943C12.5064 4.2568 12.5064 3.99281 12.669 3.83018L13.2583 3.24092C13.4209 3.07829 13.6849 3.07829 13.8475 3.24092L15.026 4.41943C15.1887 4.58207 15.1887 4.84605 15.026 5.00869L14.4368 5.59794C14.2741 5.76058 14.0101 5.76058 13.8475 5.59794Z" fill="black"/>
</svg>
