<svg viewBox="0 0 8 13" fill="none" xmlns="http://www.w3.org/2000/svg">
<path d="M4.16922 0.00474941C2.1231 -0.0918161 0.386215 1.29529 0.0117023 3.14946C-0.0675845 3.54077 0.267127 3.89977 0.679687 3.89977C1.0049 3.89977 1.27129 3.67212 1.33849 3.36401C1.62876 2.02758 2.98401 1.06516 4.50256 1.34922C5.79399 1.59102 6.72542 2.7731 6.65218 4.04323C6.5944 5.05011 5.92418 5.68852 5.15348 6.42239C4.44729 7.09516 3.66505 7.8397 3.39494 8.92978C3.29146 9.34514 3.60572 9.74992 4.04717 9.74992C4.36768 9.74992 4.62806 9.5272 4.70466 9.22559C4.89145 8.49497 5.45809 7.95502 6.09575 7.3479C6.98537 6.50093 7.99325 5.54132 7.99996 3.91627C8.00736 2.13718 6.84084 0.594985 5.06293 0.139323C4.76107 0.0619712 4.46152 0.0185445 4.16922 0.00474941ZM3.63247 11.7C3.44702 11.7 3.29651 11.8456 3.29651 12.025V12.675C3.29651 12.8544 3.44702 13 3.63247 13H4.30439C4.48984 13 4.64035 12.8544 4.64035 12.675V12.025C4.64035 11.8456 4.48984 11.7 4.30439 11.7H3.63247Z" fill="black"/>
</svg>
