<svg viewBox="0 0 20 20" fill="none" xmlns="http://www.w3.org/2000/svg">
<path d="M17.7778 0H2.22222C0.996667 0 0 0.996667 0 2.22222V17.7778C0 19.0033 0.996667 20 2.22222 20H17.7778C19.0033 20 20 19.0033 20 17.7778V2.22222C20 0.996667 19.0033 0 17.7778 0ZM13.3333 6.66667V13.3333C13.3333 13.9467 12.8356 14.4444 12.2222 14.4444C11.6089 14.4444 11.1111 13.9467 11.1111 13.3333V6.66667C11.1111 6.05333 11.6089 5.55556 12.2222 5.55556C12.8356 5.55556 13.3333 6.05333 13.3333 6.66667ZM8.88889 6.66667V13.3333C8.88889 13.9467 8.39111 14.4444 7.77778 14.4444C7.16444 14.4444 6.66667 13.9467 6.66667 13.3333V6.66667C6.66667 6.05333 7.16444 5.55556 7.77778 5.55556C8.39111 5.55556 8.88889 6.05333 8.88889 6.66667Z" fill="white"/>
</svg>
