<svg viewBox="0 0 13 14" fill="none" xmlns="http://www.w3.org/2000/svg">
<path d="M5.25332 0C4.94028 0 4.67268 0.228889 4.61256 0.546609L4.39429 1.70584C3.8579 1.91565 3.36193 2.20877 2.9264 2.57857L1.85166 2.19568C1.55561 2.09022 1.22988 2.21685 1.07304 2.49671L0.0876376 4.26329C-0.0685558 4.54383 -0.011709 4.89999 0.224215 5.11225L1.0858 5.88727C1.04099 6.17211 1.01177 6.46208 1.01177 6.76C1.01177 7.05792 1.04099 7.34789 1.0858 7.63273L0.224215 8.40775C-0.011709 8.62001 -0.0685558 8.97617 0.0876376 9.25671L1.07304 11.0233C1.22923 11.3038 1.55561 11.4304 1.85166 11.3256L2.9264 10.9427C3.36178 11.3123 3.85814 11.6044 4.39429 11.8142L4.61256 12.9734C4.67268 13.2911 4.94028 13.52 5.25332 13.52H7.22668C7.53972 13.52 7.80732 13.2911 7.86744 12.9734L8.08571 11.8142C8.6221 11.6044 9.11807 11.3112 9.5536 10.9414L10.6283 11.3243C10.9244 11.4298 11.2501 11.3038 11.407 11.0233L12.3924 9.25539C12.5486 8.97485 12.4917 8.62001 12.2558 8.40775L11.3942 7.63273C11.439 7.34789 11.4682 7.05792 11.4682 6.76C11.4682 6.46208 11.439 6.17211 11.3942 5.88727L12.2558 5.11225C12.4917 4.89999 12.5486 4.54383 12.3924 4.26329L11.407 2.49671C11.2508 2.21617 10.9244 2.08958 10.6283 2.19436L9.5536 2.57725C9.11822 2.20768 8.62186 1.91555 8.08571 1.70584L7.86744 0.546609C7.80732 0.228889 7.53972 0 7.22668 0H5.25332ZM6.24 4.056C7.68365 4.056 8.85412 5.26672 8.85412 6.76C8.85412 8.25328 7.68365 9.464 6.24 9.464C4.79635 9.464 3.62588 8.25328 3.62588 6.76C3.62588 5.26672 4.79635 4.056 6.24 4.056Z" fill="white"/>
</svg>
