<svg viewBox="0 0 20 20" fill="none" xmlns="http://www.w3.org/2000/svg">
<path d="M5.46066 0C4.85866 0 4.32009 0.372547 4.10909 0.935547L0.0602648 11.7344C-0.168735 12.3464 0.283218 13 0.937218 13C1.32722 13 1.67717 12.7586 1.81417 12.3926L3.08566 9H8.07394L8.9548 6.65234L6.81222 0.935547C6.60122 0.372547 6.06266 0 5.46066 0ZM5.46066 2.66797L7.08566 7H3.83566L5.46066 2.66797ZM13.4607 3C12.8587 3 12.3201 3.37255 12.1091 3.93555L8.06026 14.7344C7.83026 15.3464 8.28322 16 8.93722 16C9.32722 16 9.67717 15.7586 9.81417 15.3926L11.0857 12H15.8357L17.1071 15.3926C17.2441 15.7576 17.5941 16 17.9841 16C18.6381 16 19.09 15.3464 18.861 14.7344L14.8122 3.93555C14.6012 3.37255 14.0627 3 13.4607 3ZM13.4607 5.66797L15.0857 10H11.8357L13.4607 5.66797ZM8.46066 18C7.90866 18 7.46066 18.448 7.46066 19C7.46066 19.552 7.90866 20 8.46066 20H18.4607C19.0127 20 19.4607 19.552 19.4607 19C19.4607 18.448 19.0127 18 18.4607 18H8.46066Z" fill="black"/>
</svg>
