<svg viewBox="0 0 26 20" fill="none" xmlns="http://www.w3.org/2000/svg">
<path d="M2 0C0.895 0 0 0.895 0 2V14C0 15.105 0.895 16 2 16H9V18H8C7.448 18 7 18.448 7 19C7 19.552 7.448 20 8 20H14C14.552 20 15 19.552 15 19C15 18.448 14.552 18 14 18H13V16H20C21.105 16 22 15.105 22 14V2C22 0.895 21.105 0 20 0H2ZM2 2H20V14H2V2Z" fill="white"/>
<path d="M19.0999 9.19988C19.5967 9.19988 19.9999 9.60309 19.9999 10.0999C19.9999 10.5967 19.5967 10.9999 19.0999 10.9999C18.6031 10.9999 18.1999 10.5967 18.1999 10.0999C18.1999 9.60309 18.6031 9.19988 19.0999 9.19988Z" fill="black"/>
<path d="M22.1 11.5999C21.6032 11.5999 21.1999 11.1967 21.1999 10.6999C21.1999 10.2031 21.6032 9.79989 22.1 9.79989C22.5968 9.79989 23 10.2031 23 10.6999C23 11.1967 22.5968 11.5999 22.1 11.5999Z" fill="black"/>
<path d="M23.9 14.5999C23.4032 14.5999 23 14.1967 23 13.6999C23 13.2031 23.4032 12.7999 23.9 12.7999C24.3968 12.7999 24.8 13.2031 24.8 13.6999C24.8 14.1967 24.3968 14.5999 23.9 14.5999Z" fill="black"/>
<path d="M16.6999 12.7999C16.2031 12.7999 15.7999 12.3967 15.7999 11.8999C15.7999 11.4031 16.2031 10.9999 16.6999 10.9999C17.1967 10.9999 17.5999 11.4031 17.5999 11.8999C17.5999 12.3967 17.1967 12.7999 16.6999 12.7999Z" fill="black"/>
<path d="M16.0999 15.8C15.6031 15.8 15.1999 15.3968 15.1999 14.8999C15.1999 14.4031 15.6031 13.9999 16.0999 13.9999C16.5967 13.9999 16.9999 14.4031 16.9999 14.8999C16.9999 15.3968 16.5967 15.8 16.0999 15.8Z" fill="black"/>
<path d="M19.3999 18.8C18.7369 18.8 18.1999 18.263 18.1999 17.6C18.1999 16.937 18.7369 16.4 19.3999 16.4C20.0629 16.4 20.5999 16.937 20.5999 17.6C20.5999 18.263 20.0629 18.8 19.3999 18.8Z" fill="black"/>
<path d="M20.4283 8.01487C16.7773 7.76167 13.7617 10.7767 14.0149 14.4277C14.2351 17.6012 17.0035 20 20.1841 20H20.5999C21.2629 20 21.8 19.463 21.8 18.8V17C21.8 16.337 22.337 15.8 23 15.8H24.8C25.463 15.8 26 15.2629 26 14.5999V14.1841C26 11.0035 23.6012 8.23507 20.4283 8.01487ZM19.0999 9.19988C19.5967 9.19988 19.9999 9.60309 19.9999 10.0999C19.9999 10.5967 19.5967 10.9999 19.0999 10.9999C18.6031 10.9999 18.1999 10.5967 18.1999 10.0999C18.1999 9.60309 18.6031 9.19988 19.0999 9.19988ZM16.0999 15.8C15.6031 15.8 15.1999 15.3968 15.1999 14.8999C15.1999 14.4031 15.6031 13.9999 16.0999 13.9999C16.5967 13.9999 16.9999 14.4031 16.9999 14.8999C16.9999 15.3968 16.5967 15.8 16.0999 15.8ZM16.6999 12.7999C16.2031 12.7999 15.7999 12.3967 15.7999 11.8999C15.7999 11.4031 16.2031 10.9999 16.6999 10.9999C17.1967 10.9999 17.5999 11.4031 17.5999 11.8999C17.5999 12.3967 17.1967 12.7999 16.6999 12.7999ZM19.3999 18.8C18.7369 18.8 18.1999 18.263 18.1999 17.6C18.1999 16.937 18.7369 16.4 19.3999 16.4C20.0629 16.4 20.5999 16.937 20.5999 17.6C20.5999 18.263 20.0629 18.8 19.3999 18.8ZM22.1 11.5999C21.6032 11.5999 21.1999 11.1967 21.1999 10.6999C21.1999 10.2031 21.6032 9.79989 22.1 9.79989C22.5968 9.79989 23 10.2031 23 10.6999C23 11.1967 22.5968 11.5999 22.1 11.5999ZM23.9 14.5999C23.4032 14.5999 23 14.1967 23 13.6999C23 13.2031 23.4032 12.7999 23.9 12.7999C24.3968 12.7999 24.8 13.2031 24.8 13.6999C24.8 14.1967 24.3968 14.5999 23.9 14.5999Z" fill="white"/>
</svg>
