<svg viewBox="0 0 20 20" fill="none" xmlns="http://www.w3.org/2000/svg">
<path d="M7 0C3.14585 0 0 3.14585 0 7C0 10.8541 3.14585 14 7 14C8.748 14 10.345 13.348 11.5742 12.2812L12 12.707V14L17.5859 19.5859C18.1379 20.1379 19.0339 20.1379 19.5859 19.5859C20.1379 19.0339 20.1379 18.1379 19.5859 17.5859L14 12H12.707L12.2812 11.5742C13.348 10.345 14 8.748 14 7C14 3.14585 10.8541 0 7 0ZM7 2C9.77327 2 12 4.22673 12 7C12 9.77327 9.77327 12 7 12C4.22673 12 2 9.77327 2 7C2 4.22673 4.22673 2 7 2ZM6.98438 3.98633C6.7195 3.99047 6.46709 4.09953 6.28254 4.28957C6.09799 4.47962 5.99637 4.73512 6 5V6H5C4.86749 5.99813 4.73593 6.02261 4.61296 6.07202C4.48999 6.12143 4.37807 6.1948 4.2837 6.28784C4.18933 6.38088 4.11439 6.49176 4.06324 6.61401C4.0121 6.73627 3.98576 6.86748 3.98576 7C3.98576 7.13252 4.0121 7.26373 4.06324 7.38599C4.11439 7.50824 4.18933 7.61912 4.2837 7.71216C4.37807 7.8052 4.48999 7.87857 4.61296 7.92798C4.73593 7.97739 4.86749 8.00187 5 8H6V9C5.99813 9.13251 6.02261 9.26407 6.07202 9.38704C6.12143 9.51001 6.1948 9.62193 6.28784 9.7163C6.38088 9.81067 6.49176 9.88561 6.61401 9.93676C6.73627 9.9879 6.86748 10.0142 7 10.0142C7.13252 10.0142 7.26373 9.9879 7.38599 9.93676C7.50824 9.88561 7.61912 9.81067 7.71216 9.7163C7.8052 9.62193 7.87857 9.51001 7.92798 9.38704C7.97739 9.26407 8.00187 9.13251 8 9V8H9C9.13251 8.00187 9.26407 7.97739 9.38704 7.92798C9.51001 7.87857 9.62193 7.8052 9.7163 7.71216C9.81067 7.61912 9.88561 7.50824 9.93676 7.38599C9.9879 7.26373 10.0142 7.13252 10.0142 7C10.0142 6.86748 9.9879 6.73627 9.93676 6.61401C9.88561 6.49176 9.81067 6.38088 9.7163 6.28784C9.62193 6.1948 9.51001 6.12143 9.38704 6.07202C9.26407 6.02261 9.13251 5.99813 9 6H8V5C8.00183 4.86621 7.9768 4.73341 7.92638 4.60947C7.87597 4.48553 7.80119 4.37297 7.70649 4.27845C7.61179 4.18393 7.49908 4.10937 7.37504 4.05919C7.25101 4.00902 7.11816 3.98424 6.98438 3.98633Z" fill="white"/>
</svg>
