<svg viewBox="0 0 13 13" fill="none" xmlns="http://www.w3.org/2000/svg">
<path d="M6.5 0C4.83136 0 3.30584 0.633216 2.15317 1.6707L1.48159 0.999121C1.34249 0.859371 1.13293 0.81835 0.950931 0.89375C0.890481 0.9191 0.83771 0.954271 0.79351 0.999121C0.703811 1.08817 0.650055 1.21248 0.650055 1.34443V3.4125C0.650055 3.6816 0.868453 3.9 1.13755 3.9H3.2056C3.40254 3.9 3.58023 3.78177 3.65628 3.59912C3.73167 3.41712 3.69065 3.20756 3.55091 3.06846L3.07611 2.59365C3.99005 1.79082 5.18383 1.3 6.5 1.3C9.3799 1.3 11.6999 3.62007 11.6999 6.5C11.6987 6.58613 11.7146 6.67165 11.7468 6.75158C11.7789 6.83151 11.8266 6.90426 11.887 6.9656C11.9475 7.02694 12.0196 7.07564 12.0991 7.10889C12.1785 7.14214 12.2638 7.15926 12.3499 7.15926C12.4361 7.15926 12.5214 7.14214 12.6008 7.10889C12.6803 7.07564 12.7524 7.02694 12.8128 6.9656C12.8733 6.90426 12.921 6.83151 12.9531 6.75158C12.9852 6.67165 13.0012 6.58613 12.9999 6.5C12.9999 2.91763 10.0823 0 6.5 0ZM5.8919 3.25C5.80805 3.25 5.73788 3.3128 5.72813 3.396L5.65196 4.05361C5.33736 4.1628 5.05304 4.32887 4.80646 4.54238L4.19709 4.27959C4.12039 4.24644 4.03176 4.27534 3.99016 4.34814L3.38079 5.40186C3.33854 5.47401 3.35827 5.56636 3.42522 5.61641L3.9508 6.00615C3.91998 6.16623 3.90002 6.33093 3.90002 6.5C3.90002 6.66907 3.91998 6.83377 3.9508 6.99385L3.42522 7.38359C3.35827 7.43299 3.33919 7.52534 3.38079 7.59814L3.99016 8.65186C4.03176 8.72466 4.12039 8.75483 4.19709 8.72168L4.80646 8.45762C5.05304 8.67113 5.33736 8.8372 5.65196 8.94639L5.72813 9.604C5.73788 9.6872 5.80805 9.75 5.8919 9.75H7.1081C7.19195 9.75 7.26212 9.6872 7.27186 9.604L7.34804 8.94639C7.66295 8.83709 7.94805 8.67143 8.19481 8.45762L8.8029 8.71914C8.8796 8.75229 8.96824 8.72339 9.00984 8.65059L9.61921 7.59687C9.66146 7.52472 9.64172 7.43237 9.57477 7.38232L9.05046 6.99258C9.08112 6.83292 9.09997 6.6686 9.09997 6.5C9.09997 6.33093 9.08002 6.16623 9.04919 6.00615L9.57477 5.61641C9.64172 5.56701 9.6608 5.47466 9.61921 5.40186L9.00984 4.34814C8.96824 4.27534 8.8796 4.24517 8.8029 4.27832L8.19354 4.54238C7.94695 4.32887 7.66263 4.1628 7.34804 4.05361L7.27186 3.396C7.26212 3.3128 7.19195 3.25 7.1081 3.25H5.8919ZM6.5 5.2C7.21824 5.2 7.79998 5.78175 7.79998 6.5C7.79998 7.21825 7.21824 7.8 6.5 7.8C5.78175 7.8 5.20001 7.21825 5.20001 6.5C5.20001 5.78175 5.78175 5.2 6.5 5.2ZM0.639899 5.84111C0.467731 5.8438 0.303665 5.91469 0.183708 6.03822C0.0637509 6.16175 -0.00229671 6.32783 6.10227e-05 6.5C6.10227e-05 10.0824 2.91767 13 6.5 13C8.16863 13 9.69416 12.3668 10.8468 11.3293L11.5184 12.0009C11.6575 12.14 11.8671 12.1816 12.0491 12.1062C12.2317 12.0302 12.3499 11.8532 12.3499 11.6556V9.5875C12.3499 9.3184 12.1315 9.1 11.8624 9.1H11.3394H9.7944C9.66245 9.1 9.53814 9.15376 9.44909 9.24346C9.40489 9.28766 9.36907 9.34043 9.34372 9.40088C9.26832 9.58288 9.30934 9.79244 9.44909 9.93154L9.92389 10.4063C9.00995 11.2092 7.81616 11.7 6.5 11.7C3.62009 11.7 1.30005 9.37993 1.30005 6.5C1.30124 6.41304 1.28497 6.32672 1.2522 6.24616C1.21943 6.1656 1.17083 6.09243 1.10927 6.03099C1.04771 5.96955 0.974453 5.92109 0.89383 5.88847C0.813207 5.85586 0.726858 5.83975 0.639899 5.84111Z" fill="black"/>
</svg>
