<svg width="16" height="21" viewBox="0 0 16 21" fill="none" xmlns="http://www.w3.org/2000/svg">
<path d="M14.4 0H1.6C0.716 0 0 0.716 0 1.6V19.2C0 20.084 0.716 20.8 1.6 20.8H10.5376C10.9616 20.8 11.3688 20.6312 11.6688 20.3312L15.5312 16.4688C15.8312 16.1688 16 15.7616 16 15.3376V1.6C16 0.716 15.284 0 14.4 0ZM7.4368 6.2264L5.9288 6.7288L5.4264 8.2368C5.3536 8.4544 5.0464 8.4544 4.9736 8.2368L4.4712 6.7288L2.9632 6.2264C2.7456 6.1536 2.7456 5.8464 2.9632 5.7736L4.4712 5.2712L4.9736 3.7632C5.0464 3.5456 5.3536 3.5456 5.4264 3.7632L5.9288 5.2712L7.4368 5.7736C7.6544 5.8464 7.6544 6.1536 7.4368 6.2264ZM9.3088 10.1512C9.164 10.1032 9.164 9.8976 9.3088 9.8496L10.3144 9.5144L10.6496 8.5088C10.6976 8.364 10.9032 8.364 10.9512 8.5088L11.2864 9.5144L12.292 9.8496C12.4368 9.8976 12.4368 10.1032 12.292 10.1512L11.2864 10.4864L10.9512 11.492C10.9032 11.6368 10.6976 11.6368 10.6496 11.492L10.3144 10.4864L9.3088 10.1512ZM10.4 19.2V15.2H14.4L10.4 19.2Z" fill="white"/>
</svg>
