<svg viewBox="0 0 20 18" fill="none" xmlns="http://www.w3.org/2000/svg">
<path d="M12.9941 2.26454e-05C12.4618 -0.00365515 12 0.441101 12 1.00198C12 1.44398 12.2907 1.84219 12.7188 1.95119C15.5706 2.67776 17.7174 5.12346 17.9746 8.10354C17.9918 8.30221 18 8.50399 18 8.70705C18 11.9561 15.7607 14.6879 12.7188 15.4629C12.2907 15.5719 12 15.9701 12 16.4121C12 17.0531 12.6046 17.5428 13.2266 17.3848C17.1206 16.3958 20 12.8801 20 8.70705C20 4.53405 17.1206 1.01832 13.2266 0.0293195C13.1488 0.00956952 13.0702 0.000547945 12.9941 2.26454e-05ZM9.10938 1.12502C8.82777 1.09192 8.52922 1.17784 8.29297 1.41409L4 5.70705H2C0.895 5.70705 0 6.60205 0 7.70705V9.70705C0 10.8121 0.895 11.7071 2 11.7071H4L8.29297 16C8.92297 16.63 10 16.184 10 15.293V2.12112C10 1.56424 9.57871 1.18019 9.10938 1.12502ZM12.9609 4.24416C12.4569 4.26329 12 4.68557 12 5.24807V5.27151C12 5.62351 12.1851 5.95112 12.4941 6.12112C13.4141 6.62812 14 7.59505 14 8.70705C14 9.81905 13.4141 10.785 12.4941 11.291C12.1851 11.461 12 11.7906 12 12.1426V12.1641C12 12.9151 12.8148 13.4179 13.4668 13.0449C14.9868 12.1759 16 10.5601 16 8.70705C16 6.85405 14.9868 5.23916 13.4668 4.36916C13.3038 4.27616 13.1289 4.23779 12.9609 4.24416Z" fill="white"/>
</svg>
