<svg viewBox="0 0 20 20" fill="none" xmlns="http://www.w3.org/2000/svg">
<path d="M2.22222 0C0.994444 0 0 0.994444 0 2.22222V10C0 11.2278 0.994444 12.2222 2.22222 12.2222H7.77778V17.7778C7.77778 19.0056 8.77222 20 10 20H17.7778C19.0056 20 20 19.0056 20 17.7778V10C20 8.77222 19.0056 7.77778 17.7778 7.77778H12.2222V2.22222C12.2222 0.994444 11.2278 0 10 0H2.22222ZM6.10894 2.22222C6.53561 2.22222 6.91538 2.49804 7.04427 2.90582L8.70877 8.19662C8.179 8.57635 7.83028 9.18217 7.7908 9.87413C7.62649 9.7714 7.49702 9.61646 7.44575 9.4184L7.18099 8.40712H5.03906L4.77431 9.4184C4.68431 9.76174 4.37354 10 4.0191 10C3.49354 10 3.12024 9.48983 3.27691 8.98872L5.17578 2.90799C5.30356 2.4991 5.68116 2.22222 6.10894 2.22222ZM6.10677 4.32726L5.37977 7.09852H6.83377L6.10677 4.32726ZM13.5699 10C14.3365 10 14.8679 10.202 15.1345 10.3342C15.2568 10.3953 15.3342 10.5177 15.3342 10.6532C15.3342 10.8854 15.1148 11.0593 14.8915 11.0004C14.6259 10.9304 14.2707 10.8594 13.9041 10.8594C13.6985 10.8594 13.1142 11.048 13.1142 11.5191C13.1142 12.1102 14.0131 12.2786 14.2708 12.2786C15.0031 12.2786 15.7661 12.079 15.7661 12.079L15.2865 13.8889C15.2865 13.8889 14.5565 13.1529 13.5243 13.6306C12.7832 13.9729 12.6092 14.9757 12.7648 15.3168C13.2259 16.3213 14.6147 16.6544 15.6359 16.7622C16.0103 16.801 16.0759 17.3134 15.7248 17.4501C15.2659 17.629 14.6585 17.7756 13.9041 17.7756C12.613 17.7756 10.9744 17.044 10.9744 15.5751C10.9744 14.1095 12.4414 13.3746 12.4414 13.3746C12.4414 13.3746 11.7231 12.6711 11.7231 11.7578C11.7231 10.9356 12.661 10 13.5699 10Z" fill="white"/>
</svg>
