<svg viewBox="0 0 20 18" fill="none" xmlns="http://www.w3.org/2000/svg">
<path d="M11.9727 1.42868e-05C11.625 0.0016052 11.2771 0.135838 11.0121 0.401293L5.98544 5.43858C5.64544 5.77949 5.45455 6.2405 5.45455 6.72232V15.8061C5.45455 16.8107 6.26818 17.6243 7.27273 17.6243H15.4474C16.1738 17.6243 16.831 17.1916 17.1183 16.5235L19.8526 10.158C19.9499 9.93168 20 9.68707 20 9.44071V7.6243C20 6.61976 19.1864 5.80612 18.1818 5.80612H12.4077L13.3114 1.65662C13.4114 1.19844 13.2687 0.720597 12.935 0.392415C12.6677 0.129688 12.3203 -0.00157653 11.9727 1.42868e-05ZM0.909091 6.71521C0.407273 6.71521 0 7.12249 0 7.6243V16.7152C0 17.217 0.407273 17.6243 0.909091 17.6243H2.72727C3.22909 17.6243 3.63636 17.217 3.63636 16.7152V7.6243C3.63636 7.12249 3.22909 6.71521 2.72727 6.71521H0.909091Z" fill="black"/>
</svg>
